<mxfile host="www.draw.io" modified="2020-02-05T15:52:45.743Z" agent="Mozilla/5.0 (X11; Linux x86_64) AppleWebKit/537.36 (KHTML, like Gecko) Chrome/78.0.3904.108 Safari/537.36" etag="jRlDcj8TEbk8h2T27Xu2" version="12.6.5" type="github">
  <diagram id="hKOfhL3Zno_I4Ylwi2E3" name="Page-1">
    <mxGraphModel dx="1352" dy="806" grid="1" gridSize="10" guides="1" tooltips="1" connect="1" arrows="1" fold="1" page="1" pageScale="1" pageWidth="850" pageHeight="1100" math="0" shadow="0">
      <root>
        <mxCell id="0"/>
        <mxCell id="1" parent="0"/>
        <mxCell id="uA478QOfjxfz7N-5Yo6L-16" value="" style="rounded=0;whiteSpace=wrap;html=1;fontSize=18;" vertex="1" parent="1">
          <mxGeometry x="440" y="460" width="330" height="80" as="geometry"/>
        </mxCell>
        <UserObject label="&lt;font style=&quot;font-size: 19px&quot;&gt;Given an array of integers, return&amp;nbsp;indices&amp;nbsp;of the two numbers &lt;br&gt;such that they add up to a specific target.&lt;br&gt;You may assume that each input would have&amp;nbsp;exactly&amp;nbsp;one solution, &lt;br&gt;and you may not use the&amp;nbsp;same&amp;nbsp;element twice.&lt;br&gt;Example:Given nums = [2, 7, 11, 15], target = 9,&lt;br&gt;&lt;br&gt;Because nums[0] + nums[1] = 2 + 7 = 9,&lt;br&gt;return [0, 1].&lt;/font&gt;" link="Given an array of integers, return indices of the two numbers such that they add up to a specific target.You may assume that each input would have exactly one solution, and you may not use the same element twice.Example:Given nums = [2, 7, 11, 15], target = 9,&#xa;&#xa;Because nums[0] + nums[1] = 2 + 7 = 9,&#xa;return [0, 1]." id="uA478QOfjxfz7N-5Yo6L-1">
          <mxCell style="text;html=1;" vertex="1" parent="1">
            <mxGeometry x="20" y="120" width="590" height="210" as="geometry"/>
          </mxCell>
        </UserObject>
        <mxCell id="uA478QOfjxfz7N-5Yo6L-2" value="&lt;font style=&quot;font-size: 35px&quot;&gt;Two Sum&lt;/font&gt;" style="text;html=1;strokeColor=none;fillColor=none;align=left;verticalAlign=middle;whiteSpace=wrap;rounded=0;" vertex="1" parent="1">
          <mxGeometry x="20" y="60" width="160" height="60" as="geometry"/>
        </mxCell>
        <mxCell id="uA478QOfjxfz7N-5Yo6L-3" value="2" style="rounded=0;whiteSpace=wrap;html=1;" vertex="1" parent="1">
          <mxGeometry x="70" y="370" width="40" height="40" as="geometry"/>
        </mxCell>
        <mxCell id="uA478QOfjxfz7N-5Yo6L-4" value="7" style="rounded=0;whiteSpace=wrap;html=1;" vertex="1" parent="1">
          <mxGeometry x="110" y="370" width="40" height="40" as="geometry"/>
        </mxCell>
        <mxCell id="uA478QOfjxfz7N-5Yo6L-5" value="11" style="rounded=0;whiteSpace=wrap;html=1;" vertex="1" parent="1">
          <mxGeometry x="150" y="370" width="40" height="40" as="geometry"/>
        </mxCell>
        <mxCell id="uA478QOfjxfz7N-5Yo6L-6" value="15" style="rounded=0;whiteSpace=wrap;html=1;" vertex="1" parent="1">
          <mxGeometry x="190" y="370" width="40" height="40" as="geometry"/>
        </mxCell>
        <mxCell id="uA478QOfjxfz7N-5Yo6L-7" value="2" style="rounded=0;whiteSpace=wrap;html=1;" vertex="1" parent="1">
          <mxGeometry x="70" y="480" width="40" height="40" as="geometry"/>
        </mxCell>
        <mxCell id="uA478QOfjxfz7N-5Yo6L-8" value="7" style="rounded=0;whiteSpace=wrap;html=1;" vertex="1" parent="1">
          <mxGeometry x="270" y="480" width="40" height="40" as="geometry"/>
        </mxCell>
        <mxCell id="uA478QOfjxfz7N-5Yo6L-9" value="11" style="rounded=0;whiteSpace=wrap;html=1;" vertex="1" parent="1">
          <mxGeometry x="310" y="480" width="40" height="40" as="geometry"/>
        </mxCell>
        <mxCell id="uA478QOfjxfz7N-5Yo6L-10" value="15" style="rounded=0;whiteSpace=wrap;html=1;" vertex="1" parent="1">
          <mxGeometry x="350" y="480" width="40" height="40" as="geometry"/>
        </mxCell>
        <mxCell id="uA478QOfjxfz7N-5Yo6L-11" value="&lt;font style=&quot;font-size: 17px&quot;&gt;Given Array&lt;/font&gt;" style="text;html=1;strokeColor=none;fillColor=none;align=left;verticalAlign=middle;whiteSpace=wrap;rounded=0;" vertex="1" parent="1">
          <mxGeometry x="70" y="340" width="110" height="20" as="geometry"/>
        </mxCell>
        <mxCell id="uA478QOfjxfz7N-5Yo6L-12" value="" style="endArrow=classic;html=1;entryX=0;entryY=0.5;entryDx=0;entryDy=0;exitX=1;exitY=0.5;exitDx=0;exitDy=0;" edge="1" parent="1" source="uA478QOfjxfz7N-5Yo6L-7" target="uA478QOfjxfz7N-5Yo6L-8">
          <mxGeometry width="50" height="50" relative="1" as="geometry">
            <mxPoint x="20" y="590" as="sourcePoint"/>
            <mxPoint x="70" y="540" as="targetPoint"/>
          </mxGeometry>
        </mxCell>
        <mxCell id="uA478QOfjxfz7N-5Yo6L-13" value="newTarget-2=7" style="text;html=1;align=center;verticalAlign=middle;resizable=0;points=[];labelBackgroundColor=#ffffff;fontSize=18;" vertex="1" connectable="0" parent="uA478QOfjxfz7N-5Yo6L-12">
          <mxGeometry x="-0.325" y="-2" relative="1" as="geometry">
            <mxPoint x="16" y="-22" as="offset"/>
          </mxGeometry>
        </mxCell>
        <mxCell id="uA478QOfjxfz7N-5Yo6L-14" value="If array number is less than or equal to the target, subtract it from target and find the result in the remaining array." style="text;html=1;strokeColor=none;fillColor=none;align=left;verticalAlign=middle;whiteSpace=wrap;rounded=0;fontSize=18;" vertex="1" parent="1">
          <mxGeometry x="450" y="450" width="310" height="100" as="geometry"/>
        </mxCell>
        <mxCell id="uA478QOfjxfz7N-5Yo6L-15" value="Find 7 in the remaining array" style="text;html=1;strokeColor=none;fillColor=none;align=left;verticalAlign=middle;whiteSpace=wrap;rounded=0;fontSize=18;" vertex="1" parent="1">
          <mxGeometry x="270" y="440" width="120" height="20" as="geometry"/>
        </mxCell>
        <mxCell id="uA478QOfjxfz7N-5Yo6L-17" value="Implementation" style="text;html=1;strokeColor=none;fillColor=none;align=left;verticalAlign=middle;whiteSpace=wrap;rounded=0;fontSize=18;" vertex="1" parent="1">
          <mxGeometry x="20" y="770" width="140" height="20" as="geometry"/>
        </mxCell>
        <mxCell id="uA478QOfjxfz7N-5Yo6L-24" value="int level = 0; // for two sum it should not cross 2 and for 3 sum it is 3&lt;br&gt;int[] results = new int[2];&lt;br&gt;&lt;br&gt;public int[] twoSums(int[] nums, int startPos, int target) {&lt;br&gt;&amp;nbsp; &amp;nbsp; if (level == 2) return;&lt;br&gt;&amp;nbsp; &amp;nbsp; for i = startPos to array-size -1&lt;br&gt;&amp;nbsp; &amp;nbsp; &amp;nbsp; &amp;nbsp; if (nums[i] == target) {&amp;nbsp; &amp;nbsp; &amp;nbsp; &amp;nbsp; &amp;nbsp; &amp;nbsp;&amp;nbsp;&lt;br&gt;&amp;nbsp; &amp;nbsp; &amp;nbsp; &amp;nbsp; &amp;nbsp; &amp;nbsp; results[level++] = i;&lt;br&gt;&amp;nbsp; &amp;nbsp; &amp;nbsp; &amp;nbsp; &amp;nbsp; &amp;nbsp; newTarget = target-nums[i]));&lt;br&gt;&amp;nbsp; &amp;nbsp; &amp;nbsp; &amp;nbsp; &amp;nbsp; &amp;nbsp; twoSums(nums, i, newTarget)&lt;br&gt;&amp;nbsp; &amp;nbsp; &amp;nbsp; &amp;nbsp; }&lt;br&gt;&amp;nbsp; &amp;nbsp;&amp;nbsp;&lt;br&gt;}" style="text;html=1;strokeColor=none;fillColor=none;align=left;verticalAlign=middle;whiteSpace=wrap;rounded=0;fontSize=18;" vertex="1" parent="1">
          <mxGeometry x="21" y="810" width="580" height="270" as="geometry"/>
        </mxCell>
        <mxCell id="uA478QOfjxfz7N-5Yo6L-28" value="level=1" style="text;html=1;strokeColor=none;fillColor=none;align=center;verticalAlign=middle;whiteSpace=wrap;rounded=0;fontSize=18;" vertex="1" parent="1">
          <mxGeometry x="140" y="510" width="40" height="20" as="geometry"/>
        </mxCell>
      </root>
    </mxGraphModel>
  </diagram>
</mxfile>
